<svg xmlns="http://www.w3.org/2000/svg" xmlns:xlink="http://www.w3.org/1999/xlink" aria-hidden="true" role="img" class="iconify iconify--logos" width="31.88" height="32" preserveAspectRatio="xMidYMid meet" viewBox="0 0 256 257"><defs><linearGradient id="IconifyId1813088fe1fbc01fb466" x1="-.828%" x2="57.636%" y1="7.652%" y2="78.411%"><stop offset="0%" stop-color="#41D1FF"></stop><stop offset="100%" stop-color="#BD34FE"></stop></linearGradient><linearGradient id="IconifyId1813088fe1fbc01fb467" x1="43.376%" x2="50.316%" y1="2.242%" y2="89.03%"><stop offset="0%" stop-color="#FFBD4F"></stop><stop offset="100%" stop-color="#FF980E"></stop></linearGradient></defs><path fill="url(#IconifyId1813088fe1fbc01fb466)" d="M255.153 37.938L134.897 252.976c-2.483 4.44-8.862 4.466-11.382.048L.875 37.958c-2.746-4.814 1.371-10.646 6.91-9.67l120.385 21.517a6.537 6.537 0 0 0 2.322-.004l117.867-21.483c5.562-1.082 9.694 4.818 6.794 9.62Z"></path><path fill="url(#IconifyId1813088fe1fbc01fb467)" d="M185.43.063L96.51 18.064a3.272 3.272 0 0 0-2.636 3.006l-5.474 92.456a3.272 3.272 0 0 0 3.99 3.378l24.777-5.718a3.272 3.272 0 0 1 3.885 3.85l-7.342 35.804a3.272 3.272 0 0 0 4.063 3.846l15.298-4.651a3.272 3.272 0 0 1 4.063 3.846l-11.703 56.674c-.716 3.468 3.89 5.34 5.785 2.348l1.344-2.118l72.404-144.377c1.687-3.365-1.237-7.186-4.933-6.44l-25.505 4.926a3.272 3.272 0 0 1-3.793-4.09l16.646-57.73A3.272 3.272 0 0 0 185.43.062Z"></path></svg>